<?xml version="1.0" encoding="utf-8"?>
<!-- Generator: Adobe Illustrator 19.0.0, SVG Export Plug-In . SVG Version: 6.00 Build 0)  -->
<svg version="1.1" class="detalhes_camisa" xmlns="http://www.w3.org/2000/svg" xmlns:xlink="http://www.w3.org/1999/xlink" x="0px" y="0px"
	width="355.9px" height="500px" viewBox="0 0 355.9 500" enable-background="new 0 0 355.9 500" xml:space="preserve" 
	shape-rendering="geometricPrecision" text-rendering="geometricPrecision" image-rendering="optimizeQuality" fill-rule="evenodd" clip-rule="evenodd">	
	<g class="punho">
		<path fill= "#fff" d="M56.7,401.5c-3.4-0.2-9.7-0.5-16.7-0.8c-7-0.3-14.7-0.5-20.3-0.8c-5.6-0.2-9.3-0.5-12.9-0.8
		c0,0,0,0-0.8,0c-0.8,0-2.3-0.1-3.3,0c-1,0.1-1.6,0.4-2,0.8c-0.4,0.4-0.6,1-0.7,1.6c-0.1,0.6-0.2,1.3,0,3.6c0.2,2.3,0.6,6.2,1,10.6
		c0.4,4.4,0.9,9.2,1.3,12.1c0.4,2.9,0.8,3.9,1.4,4.4c0.6,0.5,1.4,0.6,4,0.8s7,0.3,12.6,0.5c5.7,0.2,12.7,0.4,19.3,0.5
		c6.7,0.1,13,0.2,16.3,0.2c3.3,0,3.4,0,3.8-0.1c0.3-0.1,0.9-0.4,1.4-0.7c0.5-0.3,1-0.8,1.4-1.3c0.3-0.5,0.5-0.9,0.9-4.1
		c0.4-3.2,1-9,1.4-13.3c0.4-4.2,0.6-6.8,0.7-8.4c0.1-1.6,0.1-2.2,0.1-2.6c0-0.4-0.1-0.5-0.5-0.7s-1.3-0.7-2-1
		c-0.6-0.2-1-0.3-1.3-0.4c-0.2,0.1-0.4,0.1-0.7,0.1C60.7,401.7,60.1,401.7,56.7,401.5z M290.7,406.8c0.2,3.6,0.7,10.4,1.2,15
		s0.8,6.9,1.1,8.3c0.3,1.3,0.5,1.6,1,2c0.5,0.4,1.2,0.8,1.9,1c0.7,0.2,1.3,0.2,4.6,0c3.3-0.2,9.3-0.6,14.5-0.9
		c5.2-0.3,9.5-0.6,14.8-0.9c5.3-0.3,11.4-0.7,15.1-1c3.6-0.3,4.7-0.5,5.5-0.9c0.8-0.4,1.3-1.1,1.9-3.9c0.7-2.9,1.5-8,2.1-12.3
		c0.6-4.3,1.1-7.8,1.3-9.8c0.3-2,0.3-2.7,0.2-3.3c-0.1-0.6-0.2-1.3-0.4-1.8c-0.2-0.5-0.4-0.8-1.1-1c-0.7-0.2-2-0.3-3.2-0.3
		c-0.8,0-1.5,0-2.1,0c-0.7,0.1-1.4,0.1-2.2,0.2c-2.1,0.2-4.8,0.3-10.7,0.8c-5.9,0.4-15,1.1-22,1.7c-6.9,0.5-11.7,0.8-15.2,1.1
		c-2.2,0.2-3.8,0.3-5.3,0.5c-0.4,0.2-1.1,0.5-1.6,0.7c-0.6,0.3-1,0.5-1.3,0.7C290.6,403,290.5,403.3,290.7,406.8z"/>
	</g>	
	<g class="golas">
		<path class="gola" fill="#f1c40f" d="M196.3,71.6c1.9-1.9,5.2-5.6,8.4-9.7c3.3-4.1,6.4-8.6,8.8-12.3c2.3-3.6,3.8-6.4,4.8-8.8
		c1-2.4,1.5-4.5,1.8-6.3c0.3-1.8,0.3-3.5,0-4.8c-0.2-1.4-0.7-2.4-1.1-3.2c-0.3-0.6-0.6-0.9-0.8-1.2c-0.1-0.1-0.1-0.1-0.2-0.2
		c-0.1-0.2-0.2-0.4-0.3-0.9c-0.3-1.1-1-3.2-1.7-5.4s-1.1-4.3-2.3-6.3c-1.2-2-3.1-3.8-4.8-5.2c-1.7-1.4-3.2-2.3-4.9-3.1
		c-1.7-0.8-3.6-1.5-5.8-2.1c-2.2-0.6-4.6-0.9-7-1.3c-2.4-0.3-4.9-0.6-8.8-0.7s-9,0-12.9,0.1c-3.9,0.1-6.6,0.4-9.4,0.8
		c-2.8,0.4-5.8,1.1-8.6,2c-2.8,0.9-5.4,2.2-7.4,3.5s-3.5,2.9-4.6,4.3c-1.1,1.4-1.7,2.6-2.2,4.1c-0.5,1.4-0.9,3.1-1.3,4.9
		c-0.5,1.7-1,3.5-1.3,4.5c-0.1,0.2-0.1,0.4-0.2,0.6c-0.1,0.2-0.1,0.3-0.2,0.4c-0.7,1.2-1.3,2.5-1.8,3.5c-0.5,1.2-0.7,2.1-0.5,4.1
		c0.2,1.9,0.8,4.8,2.4,8.1c1.6,3.2,4.2,6.8,6.9,10.3c2.6,3.5,5.3,7,8.4,10.4c3.1,3.4,6.8,6.9,8.8,8.8c2,1.9,2.4,2.2,2.8,2.3
		c0.4,0.1,0.8,0.1,1.1-0.1c0.3-0.2,0.5-0.4,1.1-2.5c0.3-1.2,0.8-2.9,1.4-4.8c0.4-1.4,0.9-3,1.3-4.5c1.1-3.5,2.3-6.8,3.4-9.4
		c1.1-2.6,2.1-4.4,2.9-5.6c0.7-1.1,1.1-1.6,1.4-1.7c0.3-0.2,0.4-0.1,1,0.1c0.6,0.2,1.6,0.6,2.3,0.7s0.9,0,1.3-0.1
		c0.4,0,0.8,0,1.1,0c0.2,0,0.3,0,0.6,0.3c0.1,0.1,0.3,0.3,0.5,0.6c0.7,0.8,2.1,2.5,3.5,5c1.4,2.6,2.9,6,4.3,9.8
		c1.4,3.8,2.8,8,3.7,10.2c0.9,2.2,1.2,2.6,1.6,2.7c0.2,0.1,0.5,0,1.1-0.5C195.1,72.7,195.6,72.3,196.3,71.6z M178.6,44.4
		c-0.2,0.1-0.3,0.1-0.6,0.1c-0.2,0-0.5-0.1-0.9-0.2c-0.3-0.1-0.7-0.3-1.1-0.4c-0.4-0.2-0.7-0.4-1-0.5c-0.3-0.2-0.6-0.3-0.9-0.4
		c-0.3-0.1-0.7-0.3-2.3-1.1c-1.6-0.8-4.4-2.3-7.5-4.1s-6.8-3.9-10-5.9c-3.2-2-6-3.9-8.1-5.5c-2-1.5-3.3-2.7-4.3-3.9
		c-0.1-0.1-0.1-0.2-0.2-0.2c-1-1.2-1.6-2.3-1.9-3.5c-0.4-1.1-0.5-2.3-0.4-3.3c0.1-1,0.6-2,1.3-3c0.7-1,1.7-2,2.8-3
		c1.1-1,2.3-1.9,4-2.8c1.7-1,3.9-2,6.6-2.9c2.7-0.9,5.9-1.7,10.3-2.1c4.4-0.4,9.9-0.5,14.4-0.5c4.5,0,7.8,0.2,11,0.7
		c3.1,0.4,6.1,1.1,8.7,1.9c2.6,0.8,4.9,1.8,7,3.1c2,1.3,3.8,2.9,5,4.3c1.2,1.5,1.9,2.8,2.3,4c0.4,1.1,0.4,2,0.1,3
		c-0.3,1-0.8,2-1.5,2.9c-0.4,0.6-0.8,1.1-1.4,1.7c-0.3,0.4-0.8,0.8-1.3,1.2c-1.5,1.3-3.7,3.3-6.7,5.4c-2.9,2.1-6.5,4.4-9.9,6.5
		s-6.4,4.1-8.5,5.4c-2.1,1.3-3.1,1.9-3.7,2.2c-0.6,0.4-0.7,0.6-0.9,0.7C178.9,44.3,178.7,44.4,178.6,44.4z"/>
		<path class="gola_2" fill="#e74c3c" d="M175.7,19.6c6.1,0,11.6,0.1,15.8,0.3c4.1,0.2,6.8,0.5,9.3,0.8c2.5,0.3,4.9,0.7,6.5,1.1
		c1.2,0.3,2,0.6,2.6,0.8c0.6-0.6,1-1.1,1.4-1.7c0.6-0.9,1.2-1.9,1.5-2.9c0.3-1,0.3-1.9-0.1-3c-0.4-1.1-1.1-2.5-2.3-4
		c-1.2-1.5-3-3-5-4.3c-2-1.3-4.4-2.3-7-3.1c-2.6-0.8-5.5-1.5-8.7-1.9c-3.1-0.4-6.5-0.6-11-0.7c-4.5,0-10,0-14.4,0.5
		c-4.4,0.4-7.6,1.2-10.3,2.1c-2.7,0.9-4.9,1.9-6.6,2.9c-1.7,1-2.9,1.8-4,2.8c-1.1,1-2.1,2-2.8,3c-0.7,1-1.1,1.9-1.3,3
		c-0.1,1,0,2.2,0.4,3.3c0.4,1.1,0.9,2.3,1.9,3.5c0.1,0.1,0.1,0.2,0.2,0.2c1.3-0.3,2.8-0.6,4.8-1c2.6-0.5,6.2-1,11.2-1.4
		C163,19.7,169.6,19.6,175.7,19.6z"/>
	</g>	
	<g class="botao" >
		<path fill="#3498db" d="M179.4,383c-2,0-3.7,1.6-3.7,3.6c0,2,1.6,3.6,3.7,3.6s3.7-1.6,3.7-3.6
		C183.1,384.6,181.4,383,179.4,383z M178.5,52.7c0,2,1.6,3.6,3.7,3.6c1.6,0,3-1,3.5-2.4c-0.5-1.1-1-2.2-1.5-3.1
		c-0.3-0.6-0.6-1.1-0.9-1.6c-0.3-0.1-0.7-0.1-1-0.1C180.2,49.1,178.5,50.7,178.5,52.7z M181.3,97.8c2.1,0,3.9-1.7,3.9-3.8
		c0-2.1-1.7-3.8-3.9-3.8c-2.1,0-3.9,1.7-3.9,3.8C177.4,96.1,179.2,97.8,181.3,97.8z M180.9,151.6c2.1,0,3.7-1.7,3.7-3.7
		s-1.7-3.7-3.7-3.7c-2.1,0-3.7,1.7-3.7,3.7S178.9,151.6,180.9,151.6z M180,213.3c2.1,0,3.8-1.6,3.8-3.7c0-2-1.7-3.7-3.8-3.7
		c-2.1,0-3.8,1.6-3.8,3.7C176.2,211.7,177.9,213.3,180,213.3z M179.8,273.9c2.1,0,3.8-1.6,3.8-3.7c0-2-1.7-3.7-3.8-3.7
		c-2.1,0-3.8,1.6-3.8,3.7C176.1,272.2,177.8,273.9,179.8,273.9z M179.5,332.9c2.1,0,3.8-1.6,3.8-3.6c0-2-1.7-3.6-3.8-3.6
		c-2.1,0-3.8,1.6-3.8,3.6C175.7,331.3,177.4,332.9,179.5,332.9z"/>
	</g>
	<g class="bolso">	
		<path fill="#3498db" d="M209.4,159.8c7.9-0.1,15.8-0.1,23.5-0.1c8.1,0,15.8,0.1,20.7,0.1c3.5,0,5.6,0,7.2-0.1
		c0.1-7.3,0-8.8,0-9.6c0-0.8,0-0.8-0.8-0.9c-0.8,0-2.3-0.1-8.4-0.2c-6.1-0.1-16.6-0.2-24-0.1c-7.4,0-11.6,0.2-14,0.3
		s-3.2,0.1-3.5,0.1c-0.4,0-0.4,0-0.5,4.4C209.5,155.3,209.5,157.4,209.4,159.8z"/>
		<path d="M224.4,207.3c4.8,0.2,12.8,0.3,18.3,0.2c5.5-0.1,8.6-0.3,10.6-0.8c2-0.5,2.9-1.2,3.8-2
		c0.8-0.9,1.6-1.8,2-3c0.5-1.1,0.7-2.4,0.9-10.3c0.3-7.9,0.6-22.6,0.8-30.7c0-0.3,0-0.7,0-1c-1.6,0.1-3.7,0.1-7.2,0.1
		c-4.9,0-12.7-0.1-20.7-0.1c-7.7,0-15.6,0-23.5,0.1c-0.1,4.5-0.3,10-0.4,15.3c-0.1,8-0.1,15.3,0.1,19.5c0.2,4.2,0.5,5.4,1.2,6.7
		c0.7,1.4,1.6,3,2.6,3.9s2.1,1.2,3.5,1.4C217.8,206.9,219.6,207.1,224.4,207.3z"/>
	</g>	
	<g class="vista_2">
		<path d="M170.1,246.7c0.2-33.2,0.4-77.2,0.9-110.1c0.5-32.9,1.4-54.6,1.8-67c0.4-12.4,0.3-15.4,0.6-17.5
		c0.3-2.1,1-3.4,1.8-4.3c0.9-0.9,1.9-1.5,2.8-1.9c0.8-0.4,1.4-0.6,2.1-0.8c-0.3-0.3-0.4-0.3-0.6-0.3c-0.3,0-0.8-0.1-1.1,0
		c-0.4,0-0.6,0.2-1.3,0.1s-1.7-0.5-2.3-0.7c-0.6-0.2-0.7-0.3-1-0.1c-0.3,0.2-0.7,0.6-1.4,1.7c-0.7,1.1-1.8,3-2.9,5.6
		c-1.1,2.6-2.3,5.8-3.4,9.4c-0.5,1.5-0.9,3-1.3,4.5c-0.1,4.8-0.3,9.9-0.4,18c-0.2,9.1-0.4,22-0.5,35.3c-0.1,13.3-0.2,27.1-0.2,42.6
		c0,15.4,0,32.5,0.1,56.5c0.1,24,0.4,54.8,0.5,80.6c0.1,25.8,0.2,46.4,0.3,72.5c0.1,26.1,0.4,57.5,0.7,80.1c0.3,21.5,0.5,35,0.8,48
		c0.2,0,0.5,0.1,0.8,0.1c0.6,0,1.4,0,1.8-0.1c0.2,0,0.2,0,0.3,0c0-9.4,0.1-19.4,0.2-36c0.1-18,0.3-43.7,0.3-68
		c0.1-24.3,0-47.1,0.1-69.8C169.7,302.4,169.9,280,170.1,246.7z"/>
	</g>	
	<g class="vista">
		<path d="M179.4,390.2c-2,0-3.7-1.6-3.7-3.6c0-2,1.6-3.6,3.7-3.6s3.7,1.6,3.7,3.6
		C183.1,388.6,181.4,390.2,179.4,390.2z M169.3,462.9c-0.1,16.6-0.1,26.5-0.2,36c0.1,0,0.1,0.1,0.2,0.2c0.1,0.2,0.3,0.6,2.3,0.8
		c2,0.2,5.6,0.2,9,0.2c3.4,0,6.5,0,8.2-0.1c1.4-0.1,1.8-0.1,2-0.2c0.3-24,0.6-48,0.7-70.9c0.1-23.4-0.1-45.6,0-76.5
		c0.1-30.8,0.6-70.3,0.9-101.5c0.4-31.2,0.6-54,0.8-78.2c0.2-24.2,0.3-49.6,0.5-66.6c0.2-16.2,0.6-24.8,1-33
		c-0.6,0.5-0.9,0.6-1.1,0.5c-0.4-0.1-0.7-0.4-1.6-2.7c-0.9-2.2-2.3-6.4-3.7-10.2c-0.9-2.5-1.9-4.8-2.8-6.8
		c-0.5,1.4-1.9,2.4-3.5,2.4c-2,0-3.7-1.6-3.7-3.6c0-2,1.6-3.6,3.7-3.6c0.4,0,0.7,0,1,0.1c-1-1.7-2-2.8-2.5-3.4
		c-0.2-0.3-0.4-0.4-0.5-0.6c-0.6,0.2-1.3,0.5-2.1,0.8c-0.9,0.4-2,1-2.8,1.9c-0.9,0.9-1.5,2.1-1.8,4.3c-0.3,2.1-0.2,5.2-0.6,17.5
		c-0.4,12.4-1.3,34.1-1.8,67c-0.5,32.9-0.7,76.9-0.9,110.1c-0.2,33.2-0.4,55.7-0.5,78.3c-0.1,22.7,0,45.5-0.1,69.8
		C169.5,419.2,169.4,444.9,169.3,462.9z M179.5,332.9c-2.1,0-3.8-1.6-3.8-3.6c0-2,1.7-3.6,3.8-3.6c2.1,0,3.8,1.6,3.8,3.6
		C183.3,331.3,181.6,332.9,179.5,332.9z M183.6,270.2c0,2-1.7,3.7-3.8,3.7c-2.1,0-3.8-1.6-3.8-3.7c0-2,1.7-3.7,3.8-3.7
		C181.9,266.5,183.6,268.2,183.6,270.2z M183.8,209.6c0,2-1.7,3.7-3.8,3.7c-2.1,0-3.8-1.6-3.8-3.7c0-2,1.7-3.7,3.8-3.7
		C182.1,205.9,183.8,207.6,183.8,209.6z M184.6,147.9c0,2.1-1.7,3.7-3.7,3.7c-2.1,0-3.7-1.7-3.7-3.7s1.7-3.7,3.7-3.7
		C183,144.2,184.6,145.8,184.6,147.9z M185.1,94.1c0,2.1-1.7,3.8-3.9,3.8c-2.1,0-3.9-1.7-3.9-3.8c0-2.1,1.7-3.8,3.9-3.8
		C183.4,90.3,185.1,92,185.1,94.1z"/>
	</g>
</svg>
