<?xml version="1.0" encoding="utf-8"?>
<!-- Generator: Adobe Illustrator 19.0.0, SVG Export Plug-In . SVG Version: 6.00 Build 0)  -->
<svg version="1.1" id="molde_camisa_verso" xmlns="http://www.w3.org/2000/svg" xmlns:xlink="http://www.w3.org/1999/xlink" x="0px" y="0px"
	width="348.8px" height="500px" viewBox="0 0 348.8 500" enable-background="new 0 0 348.8 500" xml:space="preserve" 
	shape-rendering="geometricPrecision" text-rendering="geometricPrecision" image-rendering="optimizeQuality" fill-rule="evenodd" clip-rule="evenodd">
	<path d="M99.5,39c-2.8,0.9-6.5,2.1-11.1,3.5c-4.6,1.5-10.1,3.3-16.5,5.6
	c-6.4,2.3-13.9,5.1-19.5,7.5c-5.7,2.4-9.6,4.4-12.7,6.3c-3.1,1.9-5.4,3.6-6.9,4.9c-1.5,1.3-2.2,2.2-2.7,2.9
	c-0.5,0.7-0.7,1.3-0.9,1.7c-0.2,0.4-0.5,0.6-1.5,2.3c-1.1,1.8-3,5.1-4.5,8c-1.5,2.8-2.6,5.1-3.6,7.5c-1,2.4-1.9,5-2.8,8.4
	c-0.9,3.4-1.8,7.6-2.6,11.7c-0.8,4.1-1.4,8.2-2.4,15.9c-1,7.7-2.4,19.1-3.3,27.3S7.2,165.7,6.7,171c-0.5,5.3-1,10.8-1.5,16.6
	c-0.5,5.7-0.9,11.6-1.2,15.2c-0.2,3.6-0.3,5.1-0.4,10.6c-0.1,5.5-0.2,15.1-0.3,23.3c-0.1,8.2-0.3,15.1-0.8,22.4s-1.1,15.2-1.6,21.8
	c-0.4,6.6-0.6,11.9-0.3,17.4s1.3,11.2,2.1,16.2s1.7,9.2,2.3,14.1c0.6,4.8,1,10.3,1.2,15.5c0.2,5.2,0.2,10.1,0.3,13.4
	c0.1,3.4,0.4,5.2,0.7,6.9c0.3,1.7,0.6,3.4,0.7,4.2c0.1,0.8,0,0.9-0.8,0.8c-0.7,0-2-0.1-3.1-0.2c-1.1,0-2.1,0.1-2.8,0.4
	c-0.7,0.3-1,0.8-1.2,2.1c-0.2,1.3-0.1,3.5,0.4,8.3c0.5,4.9,1.4,12.4,2,16.5c0.6,4.1,0.7,4.7,1.2,5.2c0.5,0.5,1.2,0.9,4,1.2
	c2.8,0.2,7.5,0.3,13.8,0.4c6.3,0.1,14,0.3,20,0.4c6,0.2,10.2,0.3,12.9,0.3c2.8,0,4.1-0.1,5.2-0.4c1.1-0.3,1.9-0.8,2.5-1.3
	c0.5-0.4,0.8-0.8,1.2-3.8c0.4-3,1-8.7,1.4-13.4c0.4-4.7,0.6-8.3,0.5-10.3c0-1.9-0.2-2.2-0.8-2.5c-0.6-0.3-1.6-0.6-2.1-0.8
	c-0.5-0.2-0.5-0.2-0.3-5.5c0.2-5.3,0.6-16,0.6-26.7c0-10.8-0.3-21.7-0.3-31.8c0-10.1,0.4-19.4,0.8-30.1c0.5-10.7,1.1-22.8,1.4-29.4
	c0.3-6.6,0.4-7.7,1.1-9.6c0.7-1.9,2.2-4.7,3.7-9.1c1.5-4.3,3.2-10.2,4.2-13.9c1-3.8,1.5-5.5,1.5-7.9c0-2.4-0.3-5.5-1.1-11
	c-0.8-5.5-2.1-13.3-2.9-18.7c-0.8-5.5-1.1-8.5-1.2-10.7c-0.1-2.1,0-3.3,0-3.8c0-0.6,0-0.6,0.4-0.2c0.4,0.3,1.1,1,1.5,1.4
	c0.4,0.4,0.5,0.4,0.5,0.5c0,0,0,0,0.1,2c0.1,1.9,0.2,5.8,0.7,9.7c0.5,3.9,1.2,8,2.2,12.5c0.9,4.5,2,9.4,2.9,13.6
	c0.9,4.2,1.6,7.6,2.6,12.5c1,4.9,2.3,11.2,3.2,16.7c0.8,5.5,1.2,10.3,1.7,15.6c0.5,5.3,1,11.2,1.2,17.5c0.2,6.3,0,13-0.1,19.1
	c-0.1,6.1-0.1,11.5-0.4,17.3c-0.4,5.8-1.1,12.1-1.6,16.5c-0.5,4.4-0.9,7-1.3,11.2c-0.4,4.2-0.9,10.1-1.4,15.4
	c-0.5,5.3-1.1,10.1-1.8,15c-0.6,5-1.3,10.1-2.2,16.9c-0.9,6.7-2.1,15.1-3.7,23.7c-1.6,8.6-3.7,17.5-5,22.9
	c-1.3,5.4-1.8,7.2-2.1,8.1c-0.3,0.9-0.3,0.9-0.2,1.1c0.1,0.2,0.3,0.5,0.4,0.7c0.1,0.3,0.1,0.4,0.1,0.7c0,0.3,0,0.6,0,1s0,0.9,0,1.9
	c0,1,0.1,2.4,0.9,5c0.8,2.6,2.4,6.3,4.3,10.7c1.9,4.4,4.3,9.5,6.9,14.2c2.6,4.7,5.6,9.1,8.6,12.5c3,3.4,6.2,5.9,9.7,8.1
	c3.6,2.2,7.6,4.1,11.9,5.7c4.3,1.5,8.9,2.7,14.8,3.7c5.9,1,13.3,1.7,20.8,2.3c7.5,0.6,15.2,0.9,22.4,1.1s13.7,0.2,21.2,0
	c7.5-0.3,15.8-0.8,23.8-1.4c8-0.7,15.8-1.4,21.9-2.5c6.1-1,10.6-2.3,14.2-3.6s6.5-2.8,9.6-4.7c3.1-1.8,6.4-4,9.8-7.9
	c3.4-3.9,6.8-9.4,9.5-14.7c2.7-5.2,4.5-10.1,5.9-14c1.4-3.8,2.2-6.6,2.8-9c0.6-2.4,0.9-4.3,1.1-5.6c0.1-1.3,0-1.8-0.1-2.4
	c-0.1-0.5-0.2-1.1-0.2-1.3c0-0.3,0-0.3,0.1-0.4c0.2-0.2,0.5-0.5,0.6-0.7c0.2-0.2,0.2-0.2,0.2-0.3c0-0.1,0-0.4-0.5-3.3
	c-0.6-3-1.7-8.6-3-14.4c-1.3-5.7-2.6-11.6-3.8-18.2c-1.2-6.7-2.3-14.1-3.8-25.4c-1.4-11.3-3.2-26.4-4.3-39.2
	c-1.1-12.8-1.6-23.2-1.9-31.1c-0.4-7.9-0.6-13.2-1-16.9c-0.4-3.7-0.9-5.7-0.9-11.2c0-5.5,0.4-14.4,1-21.2
	c0.5-6.8,1.2-11.6,1.9-17.3c0.8-5.7,1.7-12.3,2.4-17s1.2-7.8,1.5-9.3c0.3-1.5,0.3-1.5,0.4,0c0.1,1.5,0.4,4.5,0.9,7.4
	c0.5,2.8,1.3,5.5,2.2,8c0.9,2.5,1.8,5,2.6,7.5c0.8,2.5,1.4,5,1.9,7.5c0.5,2.5,0.9,5,1.2,9.1c0.3,4.1,0.6,9.8,0.9,14.7
	c0.3,4.9,0.6,9.1,0.9,12.7c0.3,3.7,0.7,6.8,1,12.4c0.3,5.6,0.4,13.7,0.4,22.2c0,8.5-0.3,17.4-0.4,24.5c-0.1,7,0,12.2,0.3,17.4
	c0.2,5.2,0.6,10.4,0.8,14c0.2,3.6,0.4,5.6,0.4,6.7s-0.1,1.1-0.5,1.2c-0.4,0.1-1.2,0.2-1.9,0.4c-0.7,0.2-1.3,0.5-1.8,0.8
	c-0.4,0.3-0.7,0.6-0.8,1c-0.2,0.4-0.3,1-0.2,3.5c0.1,2.5,0.5,6.9,0.9,11.2c0.4,4.2,0.8,8.3,1.1,10.4c0.2,2.1,0.3,2.4,0.6,2.7
	c0.3,0.3,0.7,0.7,1.3,1.1c0.6,0.4,1.3,0.8,3.2,0.9c1.9,0.1,5-0.1,11.1-0.5c6.1-0.4,15.2-1,21.9-1.4c6.7-0.4,10.9-0.7,13.5-1
	c2.6-0.2,3.4-0.4,4.4-0.4c0.9,0,2,0,2.8-1.6c0.8-1.7,1.4-5.1,2.1-9.9c0.7-4.8,1.5-10.8,1.8-14.4c0.3-3.5,0.2-4.6,0-5.2
	c-0.2-0.7-0.5-1-1-1.2c-0.5-0.2-1.3-0.3-2.4-0.4c-1.1,0-2.4,0-3.1,0c-0.7,0-0.7,0-0.7-3.4s0-10.1,0.1-15.2c0.1-5,0.4-8.4,0.6-13.3
	c0.3-4.9,0.5-11.3,0.7-15.6c0.2-4.3,0.3-6.5,0.6-9.3c0.3-2.8,0.8-6.1,1-9.4c0.2-3.3,0.1-6.5-0.1-12.1c-0.2-5.6-0.4-13.7-0.2-22.6
	c0.2-8.9,0.7-18.6,1.2-28.6s0.7-20.1,0.8-27.4c0.1-7.2,0-11.6-0.2-17c-0.2-5.5-0.6-12.2-1.2-20c-0.5-7.8-1.2-16.9-2-27
	c-0.8-10.1-1.8-21.2-2.7-29.2c-0.9-8-1.8-12.9-3.1-17.5c-1.4-4.6-3.2-9-5.1-12.9c-1.8-3.8-3.7-7.1-4.9-9.1c-1.2-2-1.8-2.8-2.2-3.3
	c-0.4-0.5-0.7-0.7-0.9-1c-0.2-0.3-0.3-0.6-0.8-1.4c-0.5-0.8-1.4-2-3.1-3.4c-1.7-1.4-4.3-3.1-7.6-5.1c-3.3-2-7.4-4.3-13.6-7.2
	c-6.2-3-14.5-6.6-22.4-9.9c-7.8-3.3-15.2-6.3-22.6-9.4c-7.4-3.1-14.8-6.2-20.2-8.5c-5.4-2.4-8.8-4-10.6-4.9
	c-1.7-0.9-1.8-1.1-1.9-1.2c0-0.1,0-0.1-0.4-0.9c-0.4-0.8-1.1-2.3-1.7-4c-0.6-1.7-1.1-3.5-1.5-5.2c-0.4-1.7-0.7-3.3-1.2-4.5
	c-0.4-1.2-1-2-1.9-3c-1-0.9-2.3-1.9-4.2-2.7c-1.9-0.8-4.4-1.5-7.4-2c-3-0.5-6.4-0.8-10.5-1c-4.1-0.2-9-0.2-14-0.2
	c-5,0-10.2,0.1-14.6,0.3c-4.4,0.2-8.1,0.4-11.2,1c-3.1,0.5-5.7,1.4-7.4,2.1c-1.8,0.8-2.7,1.4-3.5,2.1c-0.8,0.7-1.4,1.4-2,2.7
	c-0.5,1.3-1,3.2-1.5,5.3c-0.6,2-1.2,4.2-1.9,5.9c-0.6,1.7-1.2,2.9-1.5,3.5c-0.3,0.6-0.4,0.6-0.4,0.7c0,0.1,0,0.2-0.1,0.3
	s-0.3,0.2-1,0.6c-0.8,0.4-2.1,1.2-4.7,2.4c-2.7,1.3-6.7,3.1-10.7,4.8c-4,1.7-8,3.4-10.8,4.5C104.1,37.4,102.3,38.1,99.5,39z"/>
</svg>
