<?xml version="1.0" encoding="utf-8"?>
<!-- Generator: Adobe Illustrator 19.0.0, SVG Export Plug-In . SVG Version: 6.00 Build 0)  -->
<svg version="1.1" class="detalhes_camisa" xmlns="http://www.w3.org/2000/svg" xmlns:xlink="http://www.w3.org/1999/xlink" x="0px" y="0px"
	width="348.8px" height="500px" viewBox="0 0 348.8 500" enable-background="new 0 0 348.8 500" xml:space="preserve" 
	shape-rendering="geometricPrecision" text-rendering="geometricPrecision" image-rendering="optimizeQuality" fill-rule="evenodd" clip-rule="evenodd">
	<g class="punho">
		<path  fill="#fff" d="M63.3,398.7c0.4-3,1-8.7,1.4-13.4c0.4-4.7,0.6-8.3,0.5-10.3c0-1.9-0.2-2.2-0.8-2.5
		c-0.6-0.3-1.6-0.6-2.1-0.8c0,0,0,0-0.1,0c-0.6,0-1.3,0-2,0c-1.1,0-2.3-0.1-6.3-0.3c-4-0.2-10.6-0.7-17.2-1
		c-6.6-0.3-13.2-0.4-17.9-0.5c-4.7-0.1-7.6-0.3-9.6-0.5c-0.5,0-0.9-0.1-1.3-0.1c-0.1,0.2-0.3,0.2-0.7,0.2c-0.7,0-2-0.1-3.1-0.2
		c-1.1,0-2.1,0.1-2.8,0.4c-0.7,0.3-1,0.8-1.2,2.1c-0.2,1.3-0.1,3.5,0.4,8.3c0.5,4.9,1.4,12.4,2,16.5c0.6,4.1,0.7,4.7,1.2,5.2
		c0.5,0.5,1.2,0.9,4,1.2c2.8,0.2,7.5,0.3,13.8,0.4c6.3,0.1,14,0.3,20,0.4c6,0.2,10.2,0.3,12.9,0.3c2.8,0,4.1-0.1,5.2-0.4
		c1.1-0.3,1.9-0.8,2.5-1.3C62.6,402.1,62.9,401.7,63.3,398.7z M289,372c-0.1,0.1-0.2,0.1-0.4,0.2c-0.4,0.1-1.2,0.2-1.9,0.4
		c-0.7,0.2-1.3,0.5-1.8,0.8c-0.4,0.3-0.7,0.6-0.8,1c-0.2,0.4-0.3,1-0.2,3.5c0.1,2.5,0.5,6.9,0.9,11.2c0.4,4.2,0.8,8.3,1.1,10.4
		c0.2,2.1,0.3,2.4,0.6,2.7c0.3,0.3,0.7,0.7,1.3,1.1c0.6,0.4,1.3,0.8,3.2,0.9c1.9,0.1,5-0.1,11.1-0.5c6.1-0.4,15.2-1,21.9-1.4
		c6.7-0.4,10.9-0.7,13.5-1c2.6-0.2,3.4-0.4,4.4-0.4c0.9,0,2,0,2.8-1.6c0.8-1.7,1.4-5.1,2.1-9.9c0.7-4.8,1.5-10.8,1.8-14.4
		c0.3-3.5,0.2-4.6,0-5.2c-0.2-0.7-0.5-1-1-1.2c-0.5-0.2-1.3-0.3-2.4-0.4c-1.1,0-2.4,0-3.1,0c-0.2,0-0.4,0-0.5-0.1
		c-0.7,0.1-1.6,0.2-2.7,0.3c-2.3,0.2-5.5,0.3-10.2,0.7c-4.7,0.3-10.9,0.9-16.4,1.3c-5.4,0.4-10.1,0.7-13.7,1
		c-3.6,0.3-6.3,0.5-7.8,0.6C289.9,372,289.4,372,289,372z"/>
	</g>
	<g class="gola">
		<path d="M168.4,21c4.6,0,8.9,0,13.1,0c4.2,0,8.4,0,12.6,0c4.2,0,8.5,0,11.6,0.1c3.1,0.1,5,0.1,6.9,0.4
		c1.9,0.2,3.9,0.6,5.2,1s2.1,0.9,2.8,1.1c0.2,0.1,0.4,0.1,0.5,0.2c-0.1-0.1-0.1-0.1-0.1-0.2c0-0.1,0-0.1-0.4-0.9
		c-0.4-0.8-1.1-2.3-1.7-4c-0.6-1.7-1.1-3.5-1.5-5.2c-0.4-1.7-0.7-3.3-1.2-4.5c-0.4-1.2-1-2-1.9-3c-1-0.9-2.3-1.9-4.2-2.7
		c-1.9-0.8-4.4-1.5-7.4-2c-3-0.5-6.4-0.8-10.5-1c-4.1-0.2-9-0.2-14-0.2c-5,0-10.2,0.1-14.6,0.3c-4.4,0.2-8.1,0.4-11.2,1
		c-3.1,0.5-5.7,1.4-7.4,2.1c-1.8,0.8-2.7,1.4-3.5,2.1c-0.8,0.7-1.4,1.4-2,2.7c-0.5,1.3-1,3.2-1.5,5.3c-0.6,2-1.2,4.2-1.9,5.9
		c-0.6,1.7-1.2,2.9-1.5,3.5c-0.3,0.6-0.4,0.6-0.4,0.7c0,0.1,0,0.1-0.1,0.2c0.2-0.1,0.4-0.2,0.8-0.3c0.8-0.3,2.2-1,3.6-1.4
		c1.4-0.4,2.7-0.7,5.3-0.8c2.5-0.2,6.3-0.2,10.6-0.3C158.8,21,163.8,21,168.4,21z"/>
	</g>
</svg>
