<?xml version="1.0" encoding="utf-8"?>
<!-- Generator: Adobe Illustrator 19.0.0, SVG Export Plug-In . SVG Version: 6.00 Build 0)  -->
<svg version="1.1" id="molde_camisa" xmlns="http://www.w3.org/2000/svg" xmlns:xlink="http://www.w3.org/1999/xlink" x="0px" y="0px"
	width="355.9px" height="500px" viewBox="0 0 355.9 500" enable-background="new 0 0 355.9 500" xml:space="preserve" 
	shape-rendering="geometricPrecision" text-rendering="geometricPrecision" image-rendering="optimizeQuality" fill-rule="evenodd" clip-rule="evenodd">
	<path fill="#000" d="M322.6,73.4c0.3,0.4,0.8,1.2,1.8,2.9c1.1,1.8,2.8,4.5,4.1,6.9c1.3,2.4,2.2,4.5,3,6.5
	c0.8,2,1.6,3.9,2.7,7.5c1.1,3.6,2.5,8.8,3.5,14.1c0.9,5.2,1.4,10.4,1.7,13c0.2,2.6,0.2,2.6,0.9,8.2c0.7,5.6,2,16.7,3,26
	c1,9.4,1.7,17,2.4,25.8c0.7,8.8,1.3,18.9,1.8,24.7c0.5,5.8,0.8,7.2,1.5,12.3c0.6,5,1.5,13.7,2.3,22.4c0.8,8.7,1.6,17.5,2.2,26.3
	c0.6,8.8,1.1,17.5,1.4,24.2c0.3,6.7,0.4,11.4,0.3,16.1c-0.2,4.7-0.6,9.5-1.3,14.6c-0.7,5.1-1.7,10.6-2.4,14.6
	c-0.7,3.9-1,6.3-1.1,10.3c-0.2,4-0.2,9.7-0.2,15.5c0,5.8-0.1,11.8-0.4,17.2c-0.4,5.3-1,10-1.4,12.3c-0.3,2.3-0.3,2.3,0.2,2.3
	c0.2,0,0.4,0,0.8,0c0.6,0,1.3,0,2.1,0c1.2,0,2.4,0.1,3.2,0.3c0.7,0.2,0.9,0.5,1.1,1c0.2,0.5,0.3,1.2,0.4,1.8c0.1,0.6,0,1.3-0.2,3.3
	c-0.3,2-0.7,5.5-1.3,9.8c-0.6,4.3-1.5,9.4-2.1,12.3c-0.7,2.9-1.1,3.5-1.9,3.9c-0.8,0.4-1.9,0.6-5.5,0.9c-3.6,0.3-9.8,0.6-15.1,1
	c-5.3,0.3-9.6,0.6-14.8,0.9c-5.2,0.3-11.2,0.7-14.5,0.9c-3.3,0.2-3.9,0.2-4.6,0c-0.7-0.2-1.4-0.7-1.9-1c-0.5-0.4-0.7-0.7-1-2
	c-0.3-1.3-0.6-3.7-1.1-8.3s-1-11.4-1.2-15c-0.2-3.6-0.1-3.9,0.2-4.1c0.3-0.3,0.7-0.4,1.3-0.7c0.5-0.2,1.2-0.5,1.6-0.7
	c0.1,0,0.2-0.1,0.2-0.1c0.4-0.2,0.4-0.2,0.2-4c-0.3-3.8-0.8-11.4-1.3-21.3c-0.6-9.9-1.2-22-1.4-31.8c-0.2-9.8,0.1-17.2,0.1-28.4
	c0-11.2-0.4-26.3-0.7-37.5c-0.3-11.2-0.5-18.6-0.6-22.3c-0.1-3.7-0.1-3.7-0.4-5.3c-0.3-1.6-1-4.8-1.6-7.2c-0.5-2.4-0.9-3.8-1.1-4.6
	s-0.2-0.7-0.7-1.9c-0.6-1.1-1.7-3.3-2.8-6.5c-1.2-3.1-2.4-7.1-3.2-10.3c-0.9-3.1-1.3-5.4-1.4-7.8c-0.1-2.4,0.3-4.8,0.7-6.8
	c0.4-1.9,0.7-3.4,0.9-6.2c0.1-2.8,0.1-7,0.1-10.1c0.1-3.1,0.3-5.2,0.7-7.5c0.4-2.3,0.9-5,1.1-7.7c0.2-2.7,0.1-5.4,0.1-6.8
	c0-1.4,0-1.4-0.5-1.3c-0.5,0.1-1.4,0.3-2.1,0.4c-0.7,0.1-1.1,0.1-1.3,0.1c-0.2,0-0.2,0-0.3,1.1c-0.1,1.1-0.2,3.2-0.5,6.2
	c-0.3,3-0.6,6.7-1.2,11.1c-0.6,4.4-1.5,9.6-2.3,14.4c-0.8,4.8-1.7,9.3-2.3,13.9c-0.6,4.6-1,9.4-1.6,14.6c-0.6,5.2-1.3,10.7-1.8,16
	c-0.5,5.3-0.7,10.2-0.9,17.3c-0.2,7.1-0.5,16.3-0.4,23.3c0.1,7,0.4,11.8,0.6,14.2c0.2,2.4,0.2,2.4,0.2,2.6c0,0.1,0.1,0.4,0.3,1.8
	c0.3,1.4,0.8,3.9,1.2,7.4c0.4,3.4,0.6,7.8,0.7,10.5c0.1,2.7,0.2,3.9,0.9,10.9c0.6,7,1.8,19.9,3,30.9c1.2,11,2.4,20.1,3.6,28.2
	c1.2,8.1,2.4,15.2,4.1,23.5s3.7,17.7,5,23.4c1.3,5.6,1.7,7.5,2,9c0.3,1.6,0.3,2.8-0.6,5c-0.9,2.2-2.7,5.4-4.5,8.3
	c-1.7,3-3.4,5.7-5.5,8.7c-2.2,3-4.8,6.1-7.4,8.4c-2.6,2.2-5.1,3.5-8.2,5.1c-3.1,1.6-6.9,3.6-12.8,5.7c-5.9,2.1-14.1,4.3-21.8,6
	c-7.8,1.7-15.2,3-21.2,3.8c-6.1,0.8-10.8,1.2-13.2,1.5s-2.4,0.3-2.6,0.3c0,0,0,0-0.1,0c-0.2,0.1-0.6,0.1-2,0.2
	c-1.7,0.1-4.8,0.1-8.2,0.1c-3.4,0-7.1,0-9-0.2c-2-0.2-2.2-0.6-2.3-0.8c-0.1-0.1-0.1-0.2-0.2-0.2c-0.1,0-0.2,0-0.3,0
	c-0.4,0-1.2,0.1-1.8,0.1c-0.3,0-0.5,0-0.8-0.1c-0.2,0-0.5-0.1-0.8-0.1c-0.7-0.1-1.8-0.1-4.4-0.3c-2.6-0.2-6.8-0.5-11.8-0.9
	c-5-0.4-10.8-1-16.4-2c-5.7-0.9-11.2-2.2-16.6-3.5s-10.6-2.8-14.7-4.2s-7.1-2.6-10-3.9c-2.8-1.3-5.4-2.8-7.8-4.4
	c-2.4-1.7-4.6-3.6-6.6-5.5c-1.9-1.9-3.6-3.7-5.5-6.6c-1.9-2.9-4.1-6.8-5.6-9.8c-1.5-3-2.3-5-2.7-6.4s-0.3-2.4-0.1-4
	c0.3-1.6,0.8-3.9,1.7-7.5c0.9-3.5,2-8.3,3.3-14.6c1.3-6.3,2.6-14.1,4-22.1c1.4-8,2.8-16.2,4.3-28.6c1.5-12.5,3-29.2,3.9-39
	c0.9-9.8,1.1-12.6,1.2-16.4c0.1-3.9,0.2-8.8,0.3-13.7c0.1-4.9,0.1-9.6,0.5-13.9c0.4-4.3,1.2-8,1.7-10.4c0.5-2.4,0.8-3.4,1-6.2
	c0.1-2.8,0.1-7.3-0.2-14.5c-0.3-7.1-1-16.9-1.8-25.7c-0.8-8.8-1.8-16.7-3.1-25.2c-1.3-8.5-2.9-17.8-3.7-22.4
	c-0.8-4.6-0.8-4.6-1.2-4c-0.4,0.6-1.3,1.8-1.8,2.4c-0.4,0.6-0.4,0.6-0.4,0.7c0,0.1,0.1,0.4,0.5,1.9c0.4,1.4,1.2,4,2.2,7.1
	c0.9,3.1,2,6.6,2.6,9.3c0.6,2.7,0.6,4.5,0.5,6.3c-0.1,1.8-0.3,3.5-0.6,5s-0.6,2.6-1.2,4.4c-0.6,1.8-1.5,4.1-2.5,7.1
	c-1,3-2.2,6.7-3,10.3c-0.8,3.7-1.3,7.4-2,14.8c-0.8,7.4-1.9,18.5-2.7,28.4c-0.9,9.9-1.6,18.7-1.8,25.1c-0.3,6.4-0.1,10.6,0,14.4
	c0.1,3.8,0.3,7.3,0.3,12.1c0,4.9-0.1,11.1-0.4,18.7c-0.4,7.6-1,16.6-1.6,25.3c-0.6,8.6-1.2,16.9-1.6,21.1c-0.3,4.1-0.3,4.1,0,4.2
	c0,0,0.1,0,0.2,0c0.3,0.1,0.8,0.2,1.3,0.4c0.7,0.3,1.5,0.7,2,1s0.5,0.4,0.5,0.7c0,0.4,0,1-0.1,2.6c-0.1,1.6-0.3,4.2-0.7,8.4
	c-0.4,4.2-1,10.1-1.4,13.3c-0.4,3.2-0.5,3.7-0.9,4.1c-0.3,0.5-0.9,0.9-1.4,1.3c-0.5,0.3-1,0.6-1.4,0.7c-0.3,0.1-0.5,0.1-3.8,0.1
	c-3.3,0-9.6-0.1-16.3-0.2c-6.7-0.1-13.7-0.3-19.3-0.5c-5.7-0.2-10-0.3-12.6-0.5s-3.4-0.2-4-0.8c-0.6-0.5-1-1.5-1.4-4.4
	c-0.4-2.9-0.9-7.7-1.3-12.1c-0.4-4.4-0.8-8.3-1-10.6c-0.2-2.3-0.1-3,0-3.6c0.1-0.6,0.3-1.1,0.7-1.6c0.4-0.4,1-0.7,2-0.8
	c1-0.1,2.6,0,3.3,0c0.8,0,0.8,0,0.8,0c0,0,0-0.1-0.1-1.7c-0.1-1.5-0.3-4.5-0.2-8.2c0-3.7,0.3-8.1,0.5-11.5c0.2-3.4,0.3-5.8,0.2-9.5
	c-0.1-3.7-0.3-8.6-0.4-12.6c-0.1-3.9-0.2-6.8-0.4-10c-0.3-3.2-0.7-6.7-1.1-10.6c-0.4-3.9-0.7-8.2-0.9-11.1c-0.2-3-0.2-4.6-0.2-6.2
	c0-1.6,0.1-3,0.3-5.3c0.2-2.2,0.5-5.3,0.8-8.3c0.2-3,0.4-6,0.5-11c0.2-5,0.4-11.9,0.7-19.2c0.3-7.3,0.8-14.9,1-23.2
	c0.2-8.3,0.3-17.2,0.4-24.2c0.1-7,0.2-12,0.8-23c0.7-11,1.9-28.1,2.7-40.1c0.9-12,1.5-18.8,2.2-26.3c0.7-7.5,1.6-15.8,2.7-21.9
	c1-6.2,2.1-10.2,3.3-13.9c1.1-3.6,2.3-6.8,3.8-10c1.5-3.2,3.4-6.6,5.1-9.1c1.6-2.6,3-4.3,3.7-5.2c0.7-0.9,0.7-0.9,0.7-1
	c0-0.1,0-0.3,0-0.5c0-0.2,0.2-0.3,0.4-0.7c0.3-0.4,0.8-1.1,1.3-1.7c0.6-0.6,1.3-1,1.9-1.3c0.6-0.4,1.1-0.6,1.3-0.8
	c0.2-0.1,0.2-0.1,0.8-0.5c0.5-0.4,1.5-1.2,3.8-2.6c2.3-1.4,5.9-3.5,8.8-5.1c2.9-1.6,5.1-2.8,7.6-4.1c2.5-1.3,5.4-2.9,7.9-4.1
	c2.5-1.3,4.8-2.3,7.6-3.6c2.8-1.3,6.2-2.8,9.1-4.1c2.9-1.2,5.3-2.2,7.7-3.2c2.4-1.1,4.9-2.3,8.4-3.8c3.5-1.5,8-3.4,12.9-5.4
	c4.9-2,10.4-4.2,13.7-5.5c3.3-1.3,4.6-1.9,5.6-2.3c1-0.5,1.8-0.9,2.2-1.2c0.2-0.1,0.3-0.2,0.4-0.3c0.1-0.1,0.1-0.2,0.2-0.4
	c0.1-0.1,0.1-0.3,0.2-0.6c0.3-0.9,0.8-2.7,1.3-4.5c0.5-1.7,0.8-3.4,1.3-4.9c0.5-1.4,1.2-2.7,2.2-4.1c1.1-1.4,2.5-2.9,4.6-4.3
	s4.6-2.6,7.4-3.5c2.8-0.9,5.7-1.6,8.6-2c2.8-0.4,5.5-0.6,9.4-0.8c3.9-0.1,9-0.2,12.9-0.1s6.3,0.4,8.8,0.7c2.4,0.3,4.8,0.7,7,1.3
	c2.2,0.6,4.1,1.3,5.8,2.1c1.7,0.8,3.2,1.7,4.9,3.1c1.7,1.4,3.6,3.2,4.8,5.2c1.2,2,1.7,4.2,2.3,6.3s1.3,4.3,1.7,5.4
	c0.2,0.5,0.2,0.8,0.3,0.9c0.1,0.1,0.1,0.2,0.2,0.2c0.1,0,0.1,0.1,0.2,0.1c0.4,0.2,1.1,0.7,4.6,2.2c3.5,1.6,9.7,4.3,15.7,6.7
	s11.6,4.6,16.8,6.4c5.2,1.8,10,3.4,14.6,4.9c4.6,1.6,8.9,3.2,13,4.8c4.1,1.7,8,3.4,11.5,4.9c3.5,1.5,6.6,2.9,9.4,4.2
	c2.8,1.3,5.1,2.6,7.3,3.9c2.2,1.3,4.2,2.6,6,4c1.7,1.4,3.2,2.7,4,3.7c0.8,0.9,1,1.3,1.1,1.6C322.3,73,322.3,73,322.6,73.4z"/>
</svg>
