<?xml version="1.0" encoding="utf-8"?>
<!-- Generator: Adobe Illustrator 19.0.0, SVG Export Plug-In . SVG Version: 6.00 Build 0)  -->
<svg version="1.1" class="detalhes_camisa" xmlns="http://www.w3.org/2000/svg" xmlns:xlink="http://www.w3.org/1999/xlink" x="10px" y="10px"
	width="355.9px" height="500px" viewBox="-10 -10 355.9 500" enable-background="new -10 -10 355.9 500" xml:space="preserve" 
	shape-rendering="geometricPrecision" text-rendering="geometricPrecision" image-rendering="optimizeQuality" fill-rule="evenodd" clip-rule="evenodd">	
	<g class="golas">
		<path class="gola" fill="#00000000" d="M196.3,71.6c1.9-1.9,5.2-5.6,8.4-9.7c3.3-4.1,6.4-8.6,8.8-12.3c2.3-3.6,3.8-6.4,4.8-8.8
		c1-2.4,1.5-4.5,1.8-6.3c0.3-1.8,0.3-3.5,0-4.8c-0.2-1.4-0.7-2.4-1.1-3.2c-0.3-0.6-0.6-0.9-0.8-1.2c-0.1-0.1-0.1-0.1-0.2-0.2
		c-0.1-0.2-0.2-0.4-0.3-0.9c-0.3-1.1-1-3.2-1.7-5.4s-1.1-4.3-2.3-6.3c-1.2-2-3.1-3.8-4.8-5.2c-1.7-1.4-3.2-2.3-4.9-3.1
		c-1.7-0.8-3.6-1.5-5.8-2.1c-2.2-0.6-4.6-0.9-7-1.3c-2.4-0.3-4.9-0.6-8.8-0.7s-9,0-12.9,0.1c-3.9,0.1-6.6,0.4-9.4,0.8
		c-2.8,0.4-5.8,1.1-8.6,2c-2.8,0.9-5.4,2.2-7.4,3.5s-3.5,2.9-4.6,4.3c-1.1,1.4-1.7,2.6-2.2,4.1c-0.5,1.4-0.9,3.1-1.3,4.9
		c-0.5,1.7-1,3.5-1.3,4.5c-0.1,0.2-0.1,0.4-0.2,0.6c-0.1,0.2-0.1,0.3-0.2,0.4c-0.7,1.2-1.3,2.5-1.8,3.5c-0.5,1.2-0.7,2.1-0.5,4.1
		c0.2,1.9,0.8,4.8,2.4,8.1c1.6,3.2,4.2,6.8,6.9,10.3c2.6,3.5,5.3,7,8.4,10.4c3.1,3.4,6.8,6.9,8.8,8.8c2,1.9,2.4,2.2,2.8,2.3
		c0.4,0.1,0.8,0.1,1.1-0.1c0.3-0.2,0.5-0.4,1.1-2.5c0.3-1.2,0.8-2.9,1.4-4.8c0.4-1.4,0.9-3,1.3-4.5c1.1-3.5,2.3-6.8,3.4-9.4
		c1.1-2.6,2.1-4.4,2.9-5.6c0.7-1.1,1.1-1.6,1.4-1.7c0.3-0.2,0.4-0.1,1,0.1c0.6,0.2,1.6,0.6,2.3,0.7s0.9,0,1.3-0.1
		c0.4,0,0.8,0,1.1,0c0.2,0,0.3,0,0.6,0.3c0.1,0.1,0.3,0.3,0.5,0.6c0.7,0.8,2.1,2.5,3.5,5c1.4,2.6,2.9,6,4.3,9.8
		c1.4,3.8,2.8,8,3.7,10.2c0.9,2.2,1.2,2.6,1.6,2.7c0.2,0.1,0.5,0,1.1-0.5C195.1,72.7,195.6,72.3,196.3,71.6z M178.6,44.4
		c-0.2,0.1-0.3,0.1-0.6,0.1c-0.2,0-0.5-0.1-0.9-0.2c-0.3-0.1-0.7-0.3-1.1-0.4c-0.4-0.2-0.7-0.4-1-0.5c-0.3-0.2-0.6-0.3-0.9-0.4
		c-0.3-0.1-0.7-0.3-2.3-1.1c-1.6-0.8-4.4-2.3-7.5-4.1s-6.8-3.9-10-5.9c-3.2-2-6-3.9-8.1-5.5c-2-1.5-3.3-2.7-4.3-3.9
		c-0.1-0.1-0.1-0.2-0.2-0.2c-1-1.2-1.6-2.3-1.9-3.5c-0.4-1.1-0.5-2.3-0.4-3.3c0.1-1,0.6-2,1.3-3c0.7-1,1.7-2,2.8-3
		c1.1-1,2.3-1.9,4-2.8c1.7-1,3.9-2,6.6-2.9c2.7-0.9,5.9-1.7,10.3-2.1c4.4-0.4,9.9-0.5,14.4-0.5c4.5,0,7.8,0.2,11,0.7
		c3.1,0.4,6.1,1.1,8.7,1.9c2.6,0.8,4.9,1.8,7,3.1c2,1.3,3.8,2.9,5,4.3c1.2,1.5,1.9,2.8,2.3,4c0.4,1.1,0.4,2,0.1,3
		c-0.3,1-0.8,2-1.5,2.9c-0.4,0.6-0.8,1.1-1.4,1.7c-0.3,0.4-0.8,0.8-1.3,1.2c-1.5,1.3-3.7,3.3-6.7,5.4c-2.9,2.1-6.5,4.4-9.9,6.5
		s-6.4,4.1-8.5,5.4c-2.1,1.3-3.1,1.9-3.7,2.2c-0.6,0.4-0.7,0.6-0.9,0.7C178.9,44.3,178.7,44.4,178.6,44.4z"/>
		<path class="gola_2" fill="#000" d="M175.7,19.6c6.1,0,11.6,0.1,15.8,0.3c4.1,0.2,6.8,0.5,9.3,0.8c2.5,0.3,4.9,0.7,6.5,1.1
		c1.2,0.3,2,0.6,2.6,0.8c0.6-0.6,1-1.1,1.4-1.7c0.6-0.9,1.2-1.9,1.5-2.9c0.3-1,0.3-1.9-0.1-3c-0.4-1.1-1.1-2.5-2.3-4
		c-1.2-1.5-3-3-5-4.3c-2-1.3-4.4-2.3-7-3.1c-2.6-0.8-5.5-1.5-8.7-1.9c-3.1-0.4-6.5-0.6-11-0.7c-4.5,0-10,0-14.4,0.5
		c-4.4,0.4-7.6,1.2-10.3,2.1c-2.7,0.9-4.9,1.9-6.6,2.9c-1.7,1-2.9,1.8-4,2.8c-1.1,1-2.1,2-2.8,3c-0.7,1-1.1,1.9-1.3,3
		c-0.1,1,0,2.2,0.4,3.3c0.4,1.1,0.9,2.3,1.9,3.5c0.1,0.1,0.1,0.2,0.2,0.2c1.3-0.3,2.8-0.6,4.8-1c2.6-0.5,6.2-1,11.2-1.4
		C163,19.7,169.6,19.6,175.7,19.6z"/>
	</g>	
</svg>
