<?xml version="1.0" encoding="utf-8"?>
<!-- Generator: Adobe Illustrator 26.0.0, SVG Export Plug-In . SVG Version: 6.00 Build 0)  -->
<svg version="1.1"
	 id="Camada_1" text-rendering="geometricPrecision" shape-rendering="geometricPrecision" image-rendering="optimizeQuality"
	 xmlns="http://www.w3.org/2000/svg" xmlns:xlink="http://www.w3.org/1999/xlink" x="0px" y="0px" viewBox="0 0 355.9 500"
	 style="enable-background:new 0 0 355.9 500;" xml:space="preserve">
<g>
	<path class="st0" fill="#fff" d="M56.7,401.5c-3.4-0.2-9.7-0.5-16.7-0.8s-14.7-0.5-20.3-0.8c-5.6-0.2-9.3-0.5-12.9-0.8c0,0,0,0-0.8,0
		s-2.3-0.1-3.3,0s-1.6,0.4-2,0.8s-0.6,1-0.7,1.6s-0.2,1.3,0,3.6c0.2,2.3,0.6,6.2,1,10.6s0.9,9.2,1.3,12.1s0.8,3.9,1.4,4.4
		s1.4,0.6,4,0.8s7,0.3,12.6,0.5c5.7,0.2,12.7,0.4,19.3,0.5c6.7,0.1,13,0.2,16.3,0.2s3.4,0,3.8-0.1c0.3-0.1,0.9-0.4,1.4-0.7
		c0.5-0.3,1-0.8,1.4-1.3c0.3-0.5,0.5-0.9,0.9-4.1s1-9,1.4-13.3c0.4-4.2,0.6-6.8,0.7-8.4s0.1-2.2,0.1-2.6s-0.1-0.5-0.5-0.7
		s-1.3-0.7-2-1c-0.6-0.2-1-0.3-1.3-0.4c-0.2,0.1-0.4,0.1-0.7,0.1C60.7,401.7,60.1,401.7,56.7,401.5z M290.7,406.8
		c0.2,3.6,0.7,10.4,1.2,15s0.8,6.9,1.1,8.3c0.3,1.3,0.5,1.6,1,2s1.2,0.8,1.9,1c0.7,0.2,1.3,0.2,4.6,0c3.3-0.2,9.3-0.6,14.5-0.9
		s9.5-0.6,14.8-0.9s11.4-0.7,15.1-1c3.6-0.3,4.7-0.5,5.5-0.9s1.3-1.1,1.9-3.9c0.7-2.9,1.5-8,2.1-12.3s1.1-7.8,1.3-9.8
		c0.3-2,0.3-2.7,0.2-3.3c-0.1-0.6-0.2-1.3-0.4-1.8c-0.2-0.5-0.4-0.8-1.1-1s-2-0.3-3.2-0.3c-0.8,0-1.5,0-2.1,0
		c-0.7,0.1-1.4,0.1-2.2,0.2c-2.1,0.2-4.8,0.3-10.7,0.8c-5.9,0.4-15,1.1-22,1.7c-6.9,0.5-11.7,0.8-15.2,1.1c-2.2,0.2-3.8,0.3-5.3,0.5
		c-0.4,0.2-1.1,0.5-1.6,0.7c-0.6,0.3-1,0.5-1.3,0.7C290.6,403,290.5,403.3,290.7,406.8z"/>
</g>
<g>
	<path class="st1" fill="#fff" d="M196.3,71.6c1.9-1.9,5.2-5.6,8.4-9.7c3.3-4.1,6.4-8.6,8.8-12.3c2.3-3.6,3.8-6.4,4.8-8.8c1-2.4,1.5-4.5,1.8-6.3
		s0.3-3.5,0-4.8c-0.2-1.4-0.7-2.4-1.1-3.2c-0.3-0.6-0.6-0.9-0.8-1.2c-0.1-0.1-0.1-0.1-0.2-0.2c-0.1-0.2-0.2-0.4-0.3-0.9
		c-0.3-1.1-1-3.2-1.7-5.4s-1.1-4.3-2.3-6.3s-3.1-3.8-4.8-5.2S205.7,5,204,4.2s-3.6-1.5-5.8-2.1s-4.6-0.9-7-1.3
		c-2.4-0.3-4.9-0.6-8.8-0.7s-9,0-12.9,0.1s-6.6,0.4-9.4,0.8c-2.8,0.4-5.8,1.1-8.6,2s-5.4,2.2-7.4,3.5s-3.5,2.9-4.6,4.3
		s-1.7,2.6-2.2,4.1c-0.5,1.4-0.9,3.1-1.3,4.9c-0.5,1.7-1,3.5-1.3,4.5c-0.1,0.2-0.1,0.4-0.2,0.6c-0.1,0.2-0.1,0.3-0.2,0.4
		c-0.7,1.2-1.3,2.5-1.8,3.5c-0.5,1.2-0.7,2.1-0.5,4.1c0.2,1.9,0.8,4.8,2.4,8.1c1.6,3.2,4.2,6.8,6.9,10.3c2.6,3.5,5.3,7,8.4,10.4
		c3.1,3.4,6.8,6.9,8.8,8.8s2.4,2.2,2.8,2.3c0.4,0.1,0.8,0.1,1.1-0.1s0.5-0.4,1.1-2.5c0.3-1.2,0.8-2.9,1.4-4.8c0.4-1.4,0.9-3,1.3-4.5
		c1.1-3.5,2.3-6.8,3.4-9.4c1.1-2.6,2.1-4.4,2.9-5.6c0.7-1.1,1.1-1.6,1.4-1.7c0.3-0.2,0.4-0.1,1,0.1c0.6,0.2,1.6,0.6,2.3,0.7
		s0.9,0,1.3-0.1c0.4,0,0.8,0,1.1,0c0.2,0,0.3,0,0.6,0.3c0.1,0.1,0.3,0.3,0.5,0.6c0.7,0.8,2.1,2.5,3.5,5c1.4,2.6,2.9,6,4.3,9.8
		c1.4,3.8,2.8,8,3.7,10.2s1.2,2.6,1.6,2.7c0.2,0.1,0.5,0,1.1-0.5C195.1,72.7,195.6,72.3,196.3,71.6z M178.6,44.4
		c-0.2,0.1-0.3,0.1-0.6,0.1c-0.2,0-0.5-0.1-0.9-0.2c-0.3-0.1-0.7-0.3-1.1-0.4c-0.4-0.2-0.7-0.4-1-0.5c-0.3-0.2-0.6-0.3-0.9-0.4
		c-0.3-0.1-0.7-0.3-2.3-1.1s-4.4-2.3-7.5-4.1s-6.8-3.9-10-5.9s-6-3.9-8.1-5.5c-2-1.5-3.3-2.7-4.3-3.9c-0.1-0.1-0.1-0.2-0.2-0.2
		c-1-1.2-1.6-2.3-1.9-3.5c-0.4-1.1-0.5-2.3-0.4-3.3s0.6-2,1.3-3s1.7-2,2.8-3s2.3-1.9,4-2.8c1.7-1,3.9-2,6.6-2.9
		c2.7-0.9,5.9-1.7,10.3-2.1c4.4-0.4,9.9-0.5,14.4-0.5s7.8,0.2,11,0.7c3.1,0.4,6.1,1.1,8.7,1.9c2.6,0.8,4.9,1.8,7,3.1
		c2,1.3,3.8,2.9,5,4.3c1.2,1.5,1.9,2.8,2.3,4c0.4,1.1,0.4,2,0.1,3c-0.3,1-0.8,2-1.5,2.9c-0.4,0.6-0.8,1.1-1.4,1.7
		c-0.3,0.4-0.8,0.8-1.3,1.2c-1.5,1.3-3.7,3.3-6.7,5.4c-2.9,2.1-6.5,4.4-9.9,6.5s-6.4,4.1-8.5,5.4c-2.1,1.3-3.1,1.9-3.7,2.2
		c-0.6,0.4-0.7,0.6-0.9,0.7C178.9,44.3,178.7,44.4,178.6,44.4z"/>
	<path class="st2" fill="#fff" d="M175.7,19.6c6.1,0,11.6,0.1,15.8,0.3c4.1,0.2,6.8,0.5,9.3,0.8s4.9,0.7,6.5,1.1c1.2,0.3,2,0.6,2.6,0.8
		c0.6-0.6,1-1.1,1.4-1.7c0.6-0.9,1.2-1.9,1.5-2.9s0.3-1.9-0.1-3c-0.4-1.1-1.1-2.5-2.3-4s-3-3-5-4.3s-4.4-2.3-7-3.1s-5.5-1.5-8.7-1.9
		c-3.1-0.4-6.5-0.6-11-0.7c-4.5,0-10,0-14.4,0.5c-4.4,0.4-7.6,1.2-10.3,2.1s-4.9,1.9-6.6,2.9c-1.7,1-2.9,1.8-4,2.8s-2.1,2-2.8,3
		s-1.1,1.9-1.3,3c-0.1,1,0,2.2,0.4,3.3s0.9,2.3,1.9,3.5c0.1,0.1,0.1,0.2,0.2,0.2c1.3-0.3,2.8-0.6,4.8-1c2.6-0.5,6.2-1,11.2-1.4
		C163,19.7,169.6,19.6,175.7,19.6z"/>
</g>
<g>
	<path class="st3" fill="#fff" d="M209.4,159.8c7.9-0.1,15.8-0.1,23.5-0.1c8.1,0,15.8,0.1,20.7,0.1c3.5,0,5.6,0,7.2-0.1c0.1-7.3,0-8.8,0-9.6
		s0-0.8-0.8-0.9c-0.8,0-2.3-0.1-8.4-0.2c-6.1-0.1-16.6-0.2-24-0.1c-7.4,0-11.6,0.2-14,0.3s-3.2,0.1-3.5,0.1c-0.4,0-0.4,0-0.5,4.4
		C209.5,155.3,209.5,157.4,209.4,159.8z"/>
	<path class="st0" fill="#fff" d="M224.4,207.3c4.8,0.2,12.8,0.3,18.3,0.2s8.6-0.3,10.6-0.8s2.9-1.2,3.8-2c0.8-0.9,1.6-1.8,2-3
		c0.5-1.1,0.7-2.4,0.9-10.3c0.3-7.9,0.6-22.6,0.8-30.7c0-0.3,0-0.7,0-1c-1.6,0.1-3.7,0.1-7.2,0.1c-4.9,0-12.7-0.1-20.7-0.1
		c-7.7,0-15.6,0-23.5,0.1c-0.1,4.5-0.3,10-0.4,15.3c-0.1,8-0.1,15.3,0.1,19.5c0.2,4.2,0.5,5.4,1.2,6.7c0.7,1.4,1.6,3,2.6,3.9
		s2.1,1.2,3.5,1.4C217.8,206.9,219.6,207.1,224.4,207.3z"/>
</g>
<path class="st0" d="M193.6,73.6c-0.4-0.1-0.7-0.4-1.6-2.7c-0.9-2.2-2.3-6.4-3.7-10.2c-0.9-2.5-1.9-4.8-2.8-6.8
	c-0.1,0.2-0.1,0.4-0.2,0.5c0.2-2.2-0.8-4.5-3-5.3c0.3,0,0.5,0,0.8,0.1c-1-1.7-2-2.8-2.5-3.4c-0.2-0.3-0.4-0.4-0.5-0.6
	c-0.6,0.2-1.3,0.5-2.1,0.8c-0.9,0.4-2,1-2.8,1.9c-0.9,0.9-1.5,2.1-1.8,4.3c-0.3,2.1-0.2,5.2-0.6,17.5c-0.4,12.4-1.3,34.1-1.8,67
	c-0.5,32.9-0.7,76.9-0.9,110.1c-0.2,33.2-0.4,55.7-0.5,78.3c-0.1,22.7,0,45.5-0.1,69.8c0.1,24.3,0,50-0.1,68
	c-0.1,16.6-0.1,26.5-0.2,36c0.1,0,0.1,0.1,0.2,0.2c0.1,0.2,0.3,0.6,2.3,0.8c2,0.2,5.6,0.2,9,0.2c3.4,0,6.5,0,8.2-0.1
	c1.4-0.1,1.8-0.1,2-0.2c0.3-24,0.6-48,0.7-70.9c0.1-23.4-0.1-45.6,0-76.5c0.1-30.8,0.6-70.3,0.9-101.5c0.4-31.2,0.6-54,0.8-78.2
	c0.2-24.2,0.3-49.6,0.5-66.6c0.2-16.2,0.6-24.8,1-33C194.1,73.6,193.8,73.7,193.6,73.6z"/>
</svg>
